<svg width="117" height="35" fill="none" xmlns="http://www.w3.org/2000/svg"><path d="M0 2a2 2 0 012-2h113a2 2 0 012 2v31a2 2 0 01-2 2H2a2 2 0 01-2-2V2z" fill="#777"/><g clip-path="url(#clip0)"><path d="M29 7.51v6.97c0 .93-.697 1.626-1.626 1.626h-6.97c-.93 0-1.626-.697-1.626-1.626v-4.182c0-.348.348-.697.697-.697.348 0 .697.348.697.697v4.182a.25.25 0 00.232.232h6.97a.25.25 0 00.232-.232V7.51a.25.25 0 00-.232-.232h-3.485c-.349 0-.697-.349-.697-.697 0-.349.348-.697.697-.697h3.485C28.303 6 29 6.697 29 7.51zM16.106 20.52v6.97c0 .813-.697 1.51-1.626 1.51H7.51C6.697 29 6 28.303 6 27.374v-6.97c0-.93.697-1.626 1.626-1.626h6.97a1.76 1.76 0 011.51 1.742zm-8.712 6.854a.25.25 0 00.232.232h6.97a.25.25 0 00.232-.232v-6.97a.25.25 0 00-.232-.232h-6.97a.25.25 0 00-.232.232v6.97zM16.106 7.51v6.97c0 .93-.697 1.626-1.626 1.626H7.51c-.93 0-1.626-.697-1.626-1.626V7.51c0-.93.697-1.626 1.626-1.626h6.97c.93.116 1.626.813 1.626 1.626zm-8.712 6.97a.25.25 0 00.232.232h6.97a.25.25 0 00.232-.232V7.51a.25.25 0 00-.232-.232h-6.97a.25.25 0 00-.232.232v6.97zM29 20.52v6.97c0 .93-.697 1.626-1.626 1.626h-6.97c-.93 0-1.626-.697-1.626-1.626v-6.97c0-.93.697-1.626 1.626-1.626h6.97c.929 0 1.626.697 1.626 1.626zm-8.712 6.854a.25.25 0 00.232.232h6.97a.25.25 0 00.232-.232v-6.97a.25.25 0 00-.232-.232h-6.97a.25.25 0 00-.232.232v6.97z" fill="#fff"/></g><path d="M38.415 11.115h1.705v5.643c.78 0 1.327-.15 1.644-.448.316-.305.72-1.032 1.213-2.18.357-.844.65-1.439.879-1.784.234-.352.565-.645.993-.88.427-.24.899-.36 1.415-.36.656 0 1.002.006 1.037.018v1.477c-.059 0-.173-.003-.343-.01a16.445 16.445 0 00-.343-.008c-.545 0-.949.132-1.213.396-.27.263-.577.826-.922 1.687-.434 1.09-.8 1.778-1.1 2.065a3.448 3.448 0 01-1.071.677c.832.229 1.652.996 2.46 2.303L47.425 24h-2.118l-2.154-3.498c-.592-.967-1.087-1.629-1.485-1.986-.398-.364-.914-.545-1.547-.545V24h-1.705V11.115zm16.357 11.734c-.587.498-1.152.85-1.697 1.054a4.854 4.854 0 01-1.74.308c-1.025 0-1.813-.25-2.364-.747-.551-.504-.826-1.146-.826-1.925 0-.457.102-.873.307-1.248a2.63 2.63 0 01.818-.914 3.91 3.91 0 011.142-.519c.31-.082.78-.16 1.406-.237 1.278-.152 2.218-.334 2.822-.545.005-.217.008-.354.008-.413 0-.644-.149-1.099-.448-1.362-.404-.358-1.005-.536-1.802-.536-.744 0-1.295.131-1.652.395-.352.258-.612.718-.782 1.38l-1.547-.21c.14-.663.372-1.196.694-1.6.323-.41.788-.724 1.398-.94.61-.224 1.315-.335 2.118-.335.797 0 1.444.094 1.942.281.498.188.865.425 1.099.712.234.281.398.639.492 1.072.053.27.08.756.08 1.46v2.109c0 1.47.032 2.402.096 2.795.07.386.205.759.404 1.116h-1.652a3.354 3.354 0 01-.316-1.151zm-.132-3.534c-.575.235-1.436.434-2.584.598-.65.094-1.11.2-1.38.317a1.365 1.365 0 00-.844 1.265c0 .422.158.774.475 1.055.322.281.79.422 1.406.422.61 0 1.151-.132 1.626-.396.474-.27.823-.636 1.046-1.099.17-.357.255-.884.255-1.582v-.58zm2.803-4.649h7.585v1.31h-3.006V24H60.45v-8.024h-3.006v-1.31zm14.977 8.183c-.586.498-1.151.85-1.696 1.054a4.852 4.852 0 01-1.74.308c-1.026 0-1.814-.25-2.365-.747-.55-.504-.826-1.146-.826-1.925 0-.457.102-.873.308-1.248.21-.38.483-.686.817-.914a3.91 3.91 0 011.142-.519c.311-.082.78-.16 1.407-.237 1.277-.152 2.218-.334 2.821-.545.006-.217.009-.354.009-.413 0-.644-.15-1.099-.448-1.362-.405-.358-1.005-.536-1.802-.536-.744 0-1.295.131-1.653.395-.351.258-.612.718-.782 1.38l-1.547-.21c.141-.663.373-1.196.695-1.6.322-.41.788-.724 1.397-.94.61-.224 1.316-.335 2.118-.335.797 0 1.445.094 1.943.281.498.188.864.425 1.098.712.235.281.399.639.493 1.072.052.27.079.756.079 1.46v2.109c0 1.47.032 2.402.096 2.795.07.386.206.759.405 1.116h-1.653a3.356 3.356 0 01-.316-1.151zm-.132-3.534c-.574.235-1.435.434-2.584.598-.65.094-1.11.2-1.38.317a1.366 1.366 0 00-.843 1.265c0 .422.158.774.474 1.055.322.281.791.422 1.406.422.61 0 1.152-.132 1.626-.396.475-.27.824-.636 1.046-1.099.17-.357.255-.884.255-1.582v-.58zm4.834-4.649h7.348V24h-1.573v-8.024h-4.193v4.649c0 1.084-.035 1.799-.105 2.145-.07.345-.264.647-.58.905-.317.258-.774.386-1.372.386-.369 0-.794-.023-1.274-.07v-1.318h.694c.329 0 .563-.032.704-.097a.533.533 0 00.28-.325c.048-.146.071-.624.071-1.433v-6.152zm9.36 4.667c0-1.728.48-3.009 1.442-3.84.803-.692 1.781-1.038 2.935-1.038 1.284 0 2.332.422 3.147 1.266.814.838 1.222 1.998 1.222 3.48 0 1.201-.182 2.148-.545 2.839a3.798 3.798 0 01-1.574 1.6 4.556 4.556 0 01-2.25.57c-1.306 0-2.364-.418-3.172-1.256-.803-.838-1.205-2.045-1.205-3.621zm1.626 0c0 1.195.261 2.092.783 2.69a2.513 2.513 0 001.968.887c.785 0 1.439-.299 1.96-.896.522-.598.783-1.51.783-2.734 0-1.154-.264-2.027-.791-2.619-.522-.598-1.172-.896-1.952-.896-.79 0-1.447.296-1.968.887-.522.592-.783 1.486-.783 2.681zm8.992-4.667h5.37v1.31h-3.788V24H97.1v-9.334z" fill="#fff"/><defs><clipPath id="clip0"><path fill="#fff" transform="rotate(-90 17.5 11.5)" d="M0 0h23v23H0z"/></clipPath></defs></svg>