<svg width="23" height="23" fill="none" xmlns="http://www.w3.org/2000/svg"><g clip-path="url(#clip0)"><path d="M23 1.51v6.97c0 .93-.697 1.626-1.626 1.626h-6.97c-.93 0-1.626-.697-1.626-1.626V4.298c0-.349.348-.697.697-.697.348 0 .697.349.697.697V8.48a.25.25 0 00.232.232h6.97a.25.25 0 00.232-.232V1.51a.25.25 0 00-.232-.232h-3.485c-.349 0-.697-.349-.697-.697 0-.349.348-.697.697-.697h3.485C22.303 0 23 .697 23 1.51zM10.106 14.52v6.97c0 .813-.697 1.51-1.626 1.51H1.51C.697 23 0 22.303 0 21.374v-6.97c0-.93.697-1.626 1.626-1.626h6.97a1.76 1.76 0 011.51 1.742zm-8.712 6.854a.25.25 0 00.232.232h6.97a.25.25 0 00.232-.232v-6.97a.25.25 0 00-.232-.232h-6.97a.25.25 0 00-.232.232v6.97zM10.106 1.51v6.97c0 .93-.697 1.626-1.626 1.626H1.51c-.93 0-1.626-.697-1.626-1.626V1.51C-.116.58.58-.116 1.51-.116h6.97c.93.116 1.626.813 1.626 1.626zM1.394 8.48a.25.25 0 00.232.232h6.97a.25.25 0 00.232-.232V1.51a.25.25 0 00-.232-.232h-6.97a.25.25 0 00-.232.232v6.97zM23 14.52v6.97c0 .93-.697 1.626-1.626 1.626h-6.97c-.93 0-1.626-.697-1.626-1.626v-6.97c0-.93.697-1.626 1.626-1.626h6.97c.929 0 1.626.697 1.626 1.626zm-8.712 6.854a.25.25 0 00.232.232h6.97a.25.25 0 00.232-.232v-6.97a.25.25 0 00-.232-.232h-6.97a.25.25 0 00-.232.232v6.97z" fill="#fff"/></g><defs><clipPath id="clip0"><path fill="#fff" transform="rotate(-90 11.5 11.5)" d="M0 0h23v23H0z"/></clipPath></defs></svg>