<svg width="20" height="20" fill="none" xmlns="http://www.w3.org/2000/svg"><path d="M7.5 0a.757.757 0 00-.583.25L.25 6.917A.757.757 0 000 7.5c0 .25.083.417.25.583L1.417 9.25A.9.9 0 002 9.5c.25 0 .417-.083.583-.25L4.25 7.583c.25-.25.75-.083.75.334v11.25c0 .416.417.833.833.833H7.5c.417 0 .833-.417.833-.833V.833a.757.757 0 00-.25-.583A.757.757 0 007.5 0zm12.583 11.917l-1.166-1.167a.9.9 0 00-.584-.25.756.756 0 00-.583.25l-1.667 1.667c-.25.25-.75.083-.75-.334V.833c0-.416-.416-.833-.833-.833h-1.667C12.417 0 12 .417 12 .833v18.334c0 .25.083.416.25.583a.9.9 0 00.583.25c.25 0 .417-.083.584-.25l6.666-6.667a.756.756 0 00.25-.583.756.756 0 00-.25-.583z" fill="#00B0A4"/></svg>