<svg width="19" height="19" fill="none" xmlns="http://www.w3.org/2000/svg"><path d="M17.223.136c-.838-.474-1.735.474-2.273 1.015-1.196 1.353-2.272 2.91-3.409 4.33-1.255 1.557-2.451 3.114-3.767 4.602-.777.88-1.555 1.76-2.033 2.842-1.136-1.218-2.093-2.571-3.349-3.654C1.495 8.527 0 7.918 0 9.813c.06 2.436 1.973 5.075 3.349 6.699.598.677 1.375 1.42 2.272 1.489 1.077.067 2.213-1.421 2.87-2.234 1.137-1.42 2.094-2.977 3.17-4.466a412.951 412.951 0 004.126-5.752c.838-1.15 3.529-4.127 1.436-5.413z" fill="#00B0A4"/></svg>