<svg width="30" height="30" fill="none" xmlns="http://www.w3.org/2000/svg"><path d="M15 30c8.284 0 15-6.716 15-15 0-8.284-6.716-15-15-15C6.716 0 0 6.716 0 15c0 8.284 6.716 15 15 15z" fill="url(#paint0_radial)"/><path d="M4.93 11.119c.105-.42.105-.944.21-1.364.524-2.727 2.308-4.51 5.035-4.615 3.252-.105 6.503-.105 9.65 0 2.937.105 5.035 2.307 5.14 5.14a138.51 138.51 0 010 9.335c-.105 2.937-2.203 5.035-5.14 5.14-3.252.105-6.503.105-9.65 0-2.937-.105-4.93-2.308-5.14-5.245 0-.21-.105-.524-.105-.734V11.12zM15 23.077h4.406c2.307-.105 3.776-1.469 3.776-3.777.105-2.832.105-5.769 0-8.6-.105-2.309-1.469-3.777-3.776-3.777a123.402 123.402 0 00-8.812 0c-2.307 0-3.67 1.468-3.776 3.671a120.458 120.458 0 000 8.707c.105 2.307 1.469 3.67 3.776 3.776 1.469.105 2.938 0 4.406 0z" fill="url(#paint1_linear)"/><path d="M4.93 11.119c.105-.42.105-.944.21-1.364.524-2.727 2.308-4.51 5.035-4.615 3.252-.105 6.503-.105 9.65 0 2.937.105 5.035 2.307 5.14 5.14a138.51 138.51 0 010 9.335c-.105 2.937-2.203 5.035-5.14 5.14-3.252.105-6.503.105-9.65 0-2.937-.105-4.93-2.308-5.14-5.245 0-.21-.105-.524-.105-.734V11.12zM15 23.077h4.406c2.307-.105 3.776-1.469 3.776-3.777.105-2.832.105-5.769 0-8.6-.105-2.309-1.469-3.777-3.776-3.777a123.402 123.402 0 00-8.812 0c-2.307 0-3.67 1.468-3.776 3.671a120.458 120.458 0 000 8.707c.105 2.307 1.469 3.67 3.776 3.776 1.469.105 2.938 0 4.406 0z" fill="#fff"/><path d="M15 9.86A5.148 5.148 0 009.86 15 5.148 5.148 0 0015 20.14 5.148 5.148 0 0020.14 15 5.148 5.148 0 0015 9.86zm0 8.496c-1.888 0-3.357-1.468-3.357-3.356s1.469-3.357 3.357-3.357c1.888 0 3.357 1.469 3.357 3.357 0 1.888-1.469 3.356-3.357 3.356zm6.713-8.706c0 .63-.524 1.26-1.259 1.26-.734 0-1.258-.525-1.258-1.26 0-.629.524-1.258 1.258-1.258.735 0 1.26.629 1.26 1.258z" fill="#fff"/><defs><radialGradient id="paint0_radial" cx="0" cy="0" r="1" gradientUnits="userSpaceOnUse" gradientTransform="translate(6.154 3.785) scale(33.1063)"><stop stop-color="#FAE100"/><stop offset=".054" stop-color="#FADC04"/><stop offset=".117" stop-color="#FBCE0E"/><stop offset=".183" stop-color="#FCB720"/><stop offset=".251" stop-color="#FE9838"/><stop offset=".305" stop-color="#FF7950"/><stop offset=".492" stop-color="#FF1C74"/><stop offset="1" stop-color="#6C1CD1"/></radialGradient><linearGradient id="paint1_linear" x1="21.372" y1="8.691" x2="8.41" y2="21.654" gradientUnits="userSpaceOnUse"><stop stop-color="#833AB4"/><stop offset=".092" stop-color="#9C3495"/><stop offset=".293" stop-color="#DC2546"/><stop offset=".392" stop-color="#FD1D1D"/><stop offset=".559" stop-color="#FC6831"/><stop offset=".689" stop-color="#FC9B40"/><stop offset=".752" stop-color="#FCAF45"/><stop offset=".781" stop-color="#FDB750"/><stop offset=".866" stop-color="#FECB6A"/><stop offset=".942" stop-color="#FFD87A"/><stop offset="1" stop-color="#FFDC80"/></linearGradient></defs></svg>