<svg width="30" height="30" fill="none" xmlns="http://www.w3.org/2000/svg"><path d="M15 30c8.284 0 15-6.716 15-15 0-8.284-6.716-15-15-15C6.716 0 0 6.716 0 15c0 8.284 6.716 15 15 15z" fill="#8A5DC1"/><path d="M22.922 10.563c-.422-1.584-2.218-3.38-3.908-3.697a20.536 20.536 0 00-8.028 0c-1.69.317-3.486 2.113-3.909 3.697a14.62 14.62 0 000 6.761c.423 1.585 2.008 3.17 3.698 3.697v1.796c0 .634.845.95 1.267.528l1.796-1.901H15c1.373 0 2.747-.106 4.014-.423 1.69-.317 3.486-2.112 3.909-3.697.528-2.218.528-4.437 0-6.76zm-1.373 6.55c-.317 1.056-1.584 2.324-2.746 2.64-1.373.318-2.852.423-4.331.318h-.106l-1.373 1.373-1.373 1.479c-.106.105-.317 0-.317-.106v-2.958s0-.105-.106-.105c-1.056-.212-2.43-1.585-2.746-2.641a14.965 14.965 0 010-6.127c.317-1.056 1.584-2.324 2.746-2.64a22.346 22.346 0 017.5 0c1.056.21 2.43 1.584 2.747 2.64.528 2.007.528 4.014.105 6.127z" fill="#fff"/><path d="M17.43 18.486c-.212 0-.317-.106-.423-.106-1.584-.633-2.958-1.479-4.014-2.746-.634-.74-1.162-1.479-1.585-2.43-.21-.422-.316-.845-.528-1.267-.105-.423.106-.74.317-1.057.212-.317.528-.528.845-.634a.508.508 0 01.634.212c.423.422.74.95 1.056 1.479.212.317.106.74-.21.95l-.212.212-.211.21a.321.321 0 000 .423c.422 1.057 1.056 1.902 2.218 2.43.211.106.317.211.528.106.317 0 .423-.423.74-.634a.51.51 0 01.739 0c.211.211.528.317.74.528.21.211.422.317.739.528.211.211.317.423.211.634-.211.422-.528.845-.95 1.056-.317 0-.529 0-.634.106-.212-.106.105-.106 0 0zM15 9.719c2.007.105 3.697 1.373 4.014 3.38.106.317.106.634.106 1.056 0 .106-.106.317-.212.317-.21 0-.21-.105-.21-.317 0-.316 0-.528-.106-.845-.212-1.479-1.374-2.746-2.852-2.957-.212 0-.423 0-.634-.106-.106 0-.317 0-.317-.211 0-.106.105-.317.211-.317 2.007.105 0 0 0 0z" fill="#fff"/><path d="M18.063 13.732v.106c-.105.21-.316.21-.422 0v-.212c0-.422-.106-.845-.317-1.267-.211-.423-.528-.74-.95-.845-.212-.106-.529-.212-.74-.212h-.317a.227.227 0 01-.211-.21c0-.107.105-.212.21-.212.423 0 .952.105 1.268.317.846.422 1.268 1.162 1.48 2.113v.422s0-.211 0 0z" fill="#fff"/><path d="M16.796 13.627c-.212 0-.212-.106-.317-.211v-.317c0-.212-.211-.423-.317-.529-.106-.105-.211-.105-.317-.105-.106 0-.211 0-.422-.106-.106 0-.212-.105-.212-.317 0-.105.106-.21.212-.21.739.105 1.373.422 1.373 1.372v.212c.211.21.105.21 0 .21-.106 0 .105 0 0 0zm.634 4.858c.105-.105-.212-.105 0 0zM15 9.719c.211 0 2.007.105 0 0z" fill="#fff"/><path d="M17.958 10.88l-.317.317c.528.528.95 1.267 1.056 2.007 0 .317.106.528.106.845 0 .106.105.317.211.317s.211-.106.211-.317c0-.317 0-.74-.105-1.056-.212-.74-.634-1.48-1.162-2.113zm.105 2.324c-.105-.634-.422-1.267-.845-1.69l-.317.317c.212.211.317.317.423.528.211.423.317.845.317 1.268v.211c.106.211.422.211.422 0v-.105s0-.106 0 0v-.529zm-1.584-1.056l-.317.317h.106a.58.58 0 01.316.528v.317c0 .106.106.211.212.211.105 0 .105-.105.211-.211v-.211c0-.317-.211-.634-.528-.951z" fill="#D1D1D1"/></svg>