<svg width="30" height="30" fill="none" xmlns="http://www.w3.org/2000/svg"><path d="M15 30c8.284 0 15-6.716 15-15 0-8.284-6.716-15-15-15C6.716 0 0 6.716 0 15c0 8.284 6.716 15 15 15z" fill="#D22215"/><path d="M19.965 8.979H9.93a3.562 3.562 0 00-3.592 3.592v4.964a3.562 3.562 0 003.592 3.592h10.035a3.562 3.562 0 003.591-3.592v-4.964a3.562 3.562 0 00-3.591-3.592zm-2.43 6.338l-4.648 2.218c-.105.106-.317 0-.317-.21v-4.649c0-.105.106-.211.317-.211l4.648 2.324c.212.211.212.422 0 .528z" fill="#fff"/></svg>