<svg width="15" height="20" fill="none" xmlns="http://www.w3.org/2000/svg"><g clip-path="url(#clip0_135_742)" fill="#00B0A4"><path d="M12.6 2.7h-.7v.7c0 .7-.7 1.4-1.5 1.4H3.7c-.8 0-1.5-.6-1.5-1.4v-.7h-.7C.7 2.7 0 3.3 0 4.1v14.2c0 .7.7 1.4 1.5 1.4h11.2c.8 0 1.5-.6 1.5-1.4V4.1c-.1-.8-.7-1.4-1.6-1.4zm-.7 6.6H2.2V7.4h9.6v1.9h.1zm0 3.8H2.2v-1.9h9.6v1.9h.1zm0 3.9H2.2v-1.9h9.6V17h.1z"/><path d="M3.7 4.1h6.7c.4 0 .7-.3.7-.7v-.7c0-.4-.3-.7-.7-.7H8.9v-.6C8.9.6 8.3 0 7.4 0h-.7c-.8 0-1.5.6-1.5 1.4V2H3.7c-.4 0-.7.3-.7.7v.7c0 .4.3.7.7.7zm3.4-2.7c.2 0 .4.1.4.3 0 .2-.2.3-.4.3-.3 0-.4-.1-.4-.3 0-.2.1-.3.4-.3z"/></g><defs><clipPath id="clip0_135_742"><path fill="#fff" d="M0 0h14.1v19.6H0z"/></clipPath></defs></svg>