<svg width="27" height="17" fill="none" xmlns="http://www.w3.org/2000/svg"><path fill-rule="evenodd" clip-rule="evenodd" d="M23.346 7.169V4.32H21.31v2.848h-2.848v2.035h2.848v2.848h2.035V9.204h2.848V7.169h-2.848zm-14.65-.204v3.256h4.36c-.13.683-.406 1.308-.9 1.845-1.744 1.904-5.014 1.89-6.874-.029-1.86-1.918-1.846-5.013.043-6.917 1.802-1.802 4.694-1.875 6.453-.16l2.383-2.383C10.98-.315 6.066-.272 2.956 2.78c-3.211 3.168-3.24 8.342-.072 11.54 3.168 3.21 8.647 3.24 11.612.057 1.787-1.918 2.31-4.68 1.874-7.412H8.697z" fill="#fff"/></svg>