<svg width="22" height="23" fill="none" xmlns="http://www.w3.org/2000/svg"><path fill-rule="evenodd" clip-rule="evenodd" d="M21.807 7.073c-.058-1.148-.232-1.933-.509-2.63a5.333 5.333 0 00-1.25-1.919 5.332 5.332 0 00-1.918-1.25c-.683-.26-1.482-.45-2.63-.508-1.148-.058-1.526-.058-4.462-.058S7.725.722 6.577.766c-1.149.058-1.933.233-2.631.509a5.152 5.152 0 00-1.918 1.25 5.332 5.332 0 00-1.25 1.918c-.262.683-.45 1.482-.509 2.63C.211 8.221.211 8.6.211 11.535c0 2.935.015 3.313.058 4.461.058 1.149.233 1.933.509 2.63a5.333 5.333 0 001.25 1.92 5.333 5.333 0 001.918 1.25c.683.26 1.482.45 2.63.508 1.149.058 1.526.058 4.462.058s3.314-.015 4.462-.058c1.148-.058 1.933-.233 2.63-.509a5.155 5.155 0 001.919-1.25 5.334 5.334 0 001.25-1.918c.261-.683.45-1.482.508-2.63.058-1.149.058-1.527.058-4.462.015-2.936 0-3.3-.058-4.462zM19.86 15.91c-.044 1.061-.218 1.628-.378 2.006a3.447 3.447 0 01-.814 1.25 3.45 3.45 0 01-1.25.814c-.378.145-.96.32-2.005.377-1.149.058-1.483.058-4.375.058s-3.226-.014-4.374-.058c-1.061-.043-1.628-.218-2.006-.378a3.45 3.45 0 01-1.25-.813 3.449 3.449 0 01-.814-1.25c-.145-.378-.32-.96-.377-2.006-.058-1.148-.058-1.482-.058-4.374 0-2.892.014-3.226.058-4.375.043-1.06.218-1.627.377-2.005a3.45 3.45 0 01.814-1.25 3.45 3.45 0 011.25-.814c.378-.145.96-.32 2.006-.378 1.148-.058 1.482-.058 4.374-.058 2.892 0 3.226.015 4.374.058 1.061.044 1.628.218 2.006.378a3.45 3.45 0 011.25.814c.378.378.61.741.814 1.25.145.378.32.96.378 2.005.058 1.149.058 1.483.058 4.375.014 2.892 0 3.24-.058 4.374zm-8.807-9.926a5.551 5.551 0 100 11.103 5.551 5.551 0 005.551-5.551c.015-3.067-2.485-5.552-5.551-5.552zm0 9.17a3.604 3.604 0 113.604-3.604 3.613 3.613 0 01-3.604 3.605zm5.784-10.696c-.712 0-1.294.582-1.294 1.294 0 .712.582 1.293 1.294 1.293.712 0 1.293-.581 1.293-1.293s-.581-1.294-1.293-1.294z" fill="#fff"/></svg>