<svg width="32" height="31" fill="none" xmlns="http://www.w3.org/2000/svg"><path d="M27.054 1H4.936C1.976 1 1 1.97 1 4.915V20.85c0 2.91.975 3.88 3.936 3.88h7.698l4.214 4.434V24.73h10.24c2.927 0 3.937-.97 3.937-3.915V4.88C30.955 1.97 29.98 1 27.054 1z" fill="#fff" stroke="#5B5B5B" stroke-miterlimit="10"/><path d="M15.002 16v-.346c0-.45.07-.867.21-1.213.104-.242.243-.52.487-.762.174-.173.453-.45.87-.831.419-.347.697-.659.802-.867a1.57 1.57 0 00.174-.692c0-.45-.174-.866-.557-1.213-.349-.346-.802-.52-1.324-.52s-.94.174-1.289.486c-.348.311-.557.796-.662 1.49l-1.219-.14c.105-.9.453-1.593.976-2.078.557-.485 1.254-.727 2.16-.727.94 0 1.706.242 2.263.762.558.52.836 1.143.836 1.87 0 .416-.104.797-.313 1.178-.21.381-.592.797-1.184 1.317-.384.346-.627.588-.767.762-.14.173-.209.346-.279.554-.07.208-.104.554-.104 1.04h-1.08V16zm-.07 2.39v-1.35h1.359v1.35h-1.358z" fill="#5B5B5B"/></svg>