<svg width="25" height="21" fill="none" xmlns="http://www.w3.org/2000/svg"><path d="M24.952 3.271c-.887.393-1.846.654-2.849.785a5.014 5.014 0 002.18-2.747c-.96.567-2.02.974-3.139 1.207a4.969 4.969 0 00-3.619-1.57 4.962 4.962 0 00-4.825 6.09A14.052 14.052 0 012.498 1.862a4.964 4.964 0 00-.668 2.485c0 1.715.872 3.24 2.209 4.127A4.869 4.869 0 011.8 7.85v.058c0 2.398 1.7 4.404 3.967 4.854a4.898 4.898 0 01-1.308.175c-.32 0-.625-.03-.93-.088a4.964 4.964 0 004.622 3.445 9.997 9.997 0 01-6.148 2.122c-.407 0-.8-.03-1.177-.073a13.983 13.983 0 007.586 2.223c9.112 0 14.097-7.542 14.097-14.096 0-.218 0-.422-.015-.64a10.54 10.54 0 002.457-2.558z" fill="#fff"/></svg>