<svg width="29" height="17" fill="none" xmlns="http://www.w3.org/2000/svg"><path d="M28.547 14.555c-.073-.131-.538-1.134-2.762-3.198-2.325-2.165-2.02-1.816.785-5.551 1.715-2.282 2.398-3.677 2.18-4.273-.203-.567-1.468-.421-1.468-.421l-4.185.029s-.305-.044-.538.101c-.218.131-.363.451-.363.451s-.669 1.758-1.54 3.27c-1.86 3.168-2.616 3.328-2.922 3.139-.712-.465-.537-1.846-.537-2.82 0-3.066.465-4.345-.901-4.679-.451-.116-.785-.189-1.948-.189-1.497-.014-2.761 0-3.473.349-.48.232-.843.756-.625.785.276.043.9.174 1.235.625.436.58.407 1.889.407 1.889s.247 3.604-.581 4.055c-.567.305-1.337-.32-2.994-3.198C7.46 3.451 6.82 1.824 6.82 1.824s-.13-.305-.349-.465c-.261-.204-.64-.262-.64-.262l-3.981.03s-.596.014-.814.275c-.189.233-.014.712-.014.712s3.11 7.281 6.641 10.958c3.24 3.372 6.903 3.14 6.903 3.14h1.671s.51-.059.756-.335c.233-.247.233-.727.233-.727s-.03-2.238 1.002-2.557c1.018-.32 2.34 2.15 3.72 3.11 1.047.726 1.846.567 1.846.567l3.72-.059c.015-.014 1.963-.13 1.033-1.656z" fill="#fff"/></svg>