<svg width="284" height="43" fill="none" xmlns="http://www.w3.org/2000/svg"><path d="M0 41.811c2.982-4.713 6.063-9.352 8.92-14.139 5.143-8.567 10.138-17.232 15.182-25.873.397-.687.745-.932 1.614-.834 1.541.172 3.131.049 4.87.049 2.113 13.525 3.578 27.32 7.107 40.969-4.05-.712-8.026-.884-11.877-.025-.323-3.878-.621-7.585-.944-11.414-3.752-.442-7.355-.466-10.983-.024-.273.024-.596.392-.745.687A608.958 608.958 0 008.05 41c-.323.663-.67.835-1.391.835-2.211 0-4.448.147-6.659.22v-.245zm16.2-16.545h8.05c-.422-3.657-.844-7.167-1.267-10.653a2.083 2.083 0 01-.372-.098C20.548 18 18.46 21.486 16.2 25.266zM184.364.327c2.162.49 4.373.834 6.485 1.497 1.59.516 3.056 1.4 4.547 2.185.273.147.571.736.472 1.006-.894 2.75-1.863 5.474-2.808 8.248-.869.049-1.416-.245-1.664-1.252-1.193-4.713-5.019-7.315-9.964-7.02-4.522.245-7.876 2.307-10.088 6.16-3.28 5.72-4.348 11.906-3.304 18.362 1.068 6.505 6.335 9.622 13.119 8.027 2.683-.638 4.994-1.915 7.056-3.707.224-.196.423-.392.646-.564.05-.05.149-.05.274-.074.944.638 1.49 1.326.795 2.578-.472.834-.771 1.816-.945 2.773-.198 1.13-.745 1.866-1.863 2.16l-6.783 1.841c-.323.074-.621.172-.944.246h-5.715c-1.093-.196-2.187-.368-3.28-.638-8.125-1.89-13.045-7.659-13.591-15.858-.87-12.936 7.031-23.123 19.902-25.602a54.18 54.18 0 001.938-.393 435.5 435.5 0 005.715.025zM132.26 7.985h5.615c0 .123.025.32 0 .516-1.714 7.487-3.404 14.973-5.143 22.46-1.988 8.494-8.1 11.71-15.827 11.537a21.722 21.722 0 01-6.635-1.227c-3.453-1.203-5.317-4.001-5.317-7.536-.025-2.921.522-5.842.944-8.739.398-2.822.994-5.62 1.466-8.444a485.84 485.84 0 001.317-8.469h9.243c-.919 3.903-1.963 7.855-2.783 11.832-.745 3.633-1.416 7.315-1.888 10.997-.596 4.836 2.211 7.315 7.131 6.456 3.802-.663 6.162-3.093 7.206-6.505 1.118-3.706 1.838-7.536 2.584-11.34.72-3.609 1.267-7.242 1.888-10.875.05-.245.124-.442.199-.663zm-59.757 2.627c-.87 2.626-1.665 5.056-2.584 7.83-.522-.442-1.192-.712-1.317-1.153-1.764-5.376-6.882-7.56-12.175-5.155-1.913.859-3.354 2.283-4.373 4.05-2.808 4.86-3.776 10.113-2.733 15.612.994 5.327 5.566 7.781 11.156 6.161 1.143-.319 2.237-.834 3.28-1.424 1.019-.589 1.938-1.374 2.882-2.061 1.069.54 1.342 1.276.746 2.356-.323.565-.572 1.203-.646 1.841-.15 1.375-.97 1.988-2.187 2.43-5.764 2.062-11.504 2.283-17.12-.319-4.745-2.184-7.031-6.21-7.578-11.193-1.217-10.948 5.392-19.932 16.3-21.994 5.715-1.08 11.305-.295 16.35 3.019zm32.003.049c-.845 2.577-1.665 5.008-2.584 7.781-.522-.417-1.218-.712-1.317-1.129-1.193-5.032-5.516-6.652-10.187-5.768-2.535.466-4.522 1.84-5.889 3.952-3.304 5.081-4.323 10.678-3.155 16.569 1.018 5.18 5.441 7.438 10.982 5.99 2.41-.639 4.423-1.94 6.212-3.609 1.018.614 1.466 1.301.82 2.406a5.469 5.469 0 00-.696 1.963c-.174 1.252-.87 1.866-2.013 2.308-4.671 1.792-9.442 2.086-14.262.859-6.634-1.694-10.386-6.849-10.734-13.918-.62-13.207 10.809-22.24 23.48-20.669 3.38.368 6.56 1.252 9.343 3.265zm33.419 19.638c.423-2.308.845-4.664 1.267-7.07h13.418c-.448 2.332-.92 4.713-1.367 7.07h-13.318zm61.397-22.265h9.317a4275.22 4275.22 0 01-2.932 13.035h11.505c.745-4.37 1.49-8.714 2.236-13.035h9.392c-2.733 11.071-5.367 22.24-6.659 33.654h-9.392c1.143-5.105 2.286-10.31 3.478-15.636-.72-.05-1.292-.147-1.838-.147-2.858 0-5.715.024-8.572 0-.746 0-1.069.245-1.218 1.03-.87 4.91-1.814 9.795-2.733 14.753h-9.218c2.683-11.046 5.342-22.24 6.634-33.654zm67.037.025c-.994 4.492-2.013 9.009-3.032 13.525.1.05.224.123.323.172 1.591-1.448 3.255-2.847 4.721-4.394 2.733-2.847 5.318-5.817 8.001-8.714.298-.319.77-.687 1.168-.687 2.012-.074 4.025-.025 6.46-.025-.398.737-.596 1.424-1.044 1.866-4.348 4.197-8.721 8.37-13.144 12.494-.695.663-.72 1.178-.323 1.989 2.659 5.4 5.293 10.8 7.927 16.225.198.393.397.81.646 1.326h-1.019c-2.684 0-5.367-.074-8.051 0-.894.024-1.267-.221-1.615-1.056-1.366-3.461-2.807-6.873-4.248-10.31-.224-.564-.547-1.08-.82-1.62h-.373c-.721 4.296-1.416 8.592-2.137 12.863h-9.317c2.708-11.07 5.366-22.264 6.609-33.654h9.268zm-33.295-.025h19.679l-1.268 5.008c-2.087-.172-4.298-.466-6.509-.54-4.622-.172-3.603-.491-4.498 3.363-.422 1.792-.695 3.608-1.093 5.72 1.839 0 3.528.024 5.193 0 1.64-.05 3.305-.172 4.969-.246-.323 1.743-.621 3.412-.944 5.18-3.255-.148-6.609-.295-10.088-.442-.72 3.706-1.416 7.192-2.161 10.972 4.025-.22 7.752-.442 11.603-.638-.397 1.816-.77 3.535-1.168 5.302h-20.275c2.982-11.07 5.318-22.264 6.56-33.679z" fill="#000"/></svg>