<svg width="123" height="123" fill="none" xmlns="http://www.w3.org/2000/svg"><g clip-path="url(#clip0)" fill="#fff"><path d="M61.5.188C27.64.188.094 27.734.094 61.594S27.64 123 61.5 123s61.406-27.546 61.406-61.406S95.36.188 61.5.188zm-48.725 91.05h4.036v-4.77h-4.77v3.536a56.695 56.695 0 01-7.59-28.41 56.715 56.715 0 019.543-31.55v.28h4.603v-4.607h-1.418C27.648 12.807 43.626 4.542 61.5 4.542c27.647 0 50.757 19.768 55.953 45.911h-52.03v14.413h19.899v48.555a56.688 56.688 0 01-23.822 5.218c-20.607.004-38.698-10.981-48.725-27.401zm88.077 11.621V64.866h17.603c-.85 14.909-7.445 28.302-17.603 37.993z"/><path d="M23.533 30.323h-4.77v4.77h4.77v-4.77zm-4.936 4.766h-4.77v4.77h4.77v-4.77z"/><path d="M82.946 67.513H65.92c-2.835 5.811-8.65 9.24-16.218 9.24H39.193V40.487h10.508c6.856 0 12.273 2.81 15.339 7.658h17.48C78.386 34.543 66.06 26.324 50.387 26.09v4.234h-4.77v-4.248H23.664v4.245h4.013v9.539h4.77v4.77H27.68v-4.77h-8.917v4.77h4.9v22.928h-4.705v4.77h-4.704v4.769h4.77v-4.77h4.704v-4.77h3.952v-4.458h4.77v4.77h-4.578v9.228h-4.21v5.152h-4.447v4.77h4.448v4.151h13.509v-4.694h4.77v4.694h7.76c7.506 0 14.264-1.837 19.76-5.207H64.99v-4.77h4.77v4.586c6.501-4.086 11.195-10.338 13.187-18.265zM14.254 44.628h-4.77v4.77h4.77v-4.77z"/><path d="M18.597 58.919h-4.77v4.769h4.77v-4.77zM27.5 93.537h-3.154v7.879H27.5c2.387 0 4.155-1.53 4.155-3.938 0-2.422-1.768-3.94-4.155-3.94zm0 6.133h-1.274v-4.39H27.5c1.317 0 2.195.857 2.195 2.195 0 1.338-.878 2.195-2.195 2.195zm6.244-4.57c.575 0 1.06-.475 1.06-1.06a1.06 1.06 0 00-2.12 0c.004.589.478 1.06 1.06 1.06zm.893.596h-1.779v5.717h1.78v-5.717zm3.497 2.321c-1.114 0-2.307.507-2.307 1.78 0 1.16.958 1.768 1.97 1.768.666 0 1.396-.272 1.812-.832l.069.687h1.63v-3.341c0-1.71-.831-2.52-2.53-2.52-1.093 0-1.982.347-2.59.799l.64 1.247a2.66 2.66 0 011.555-.495c.8 0 1.146.314 1.146 1.045v.058a5.028 5.028 0 00-1.395-.196zm.202 2.192c-.426 0-.72-.203-.72-.54 0-.415.384-.585.88-.585.303 0 .686.043 1.033.145-.01.6-.618.98-1.193.98zm4.122-7.236v8.44H44.1l.069-.709c.372.539.969.857 1.7.857 1.438 0 2.62-1.237 2.62-3.016 0-1.768-1.182-2.994-2.668-2.994-.654 0-1.204.235-1.576.666v-3.24h-1.787v-.004zm2.947 4.23c.742 0 1.252.554 1.252 1.339 0 .81-.507 1.352-1.252 1.352-.73 0-1.272-.506-1.272-1.338 0-.81.52-1.352 1.272-1.352zm9.782 1.093c0-1.385-.9-2.745-2.825-2.745-1.811 0-3.015 1.273-3.015 2.994 0 1.823 1.338 3.016 3.128 3.016.943 0 1.779-.336 2.375-.922l-1.193-1.06a1.808 1.808 0 01-1.237.463c-.629 0-1.045-.293-1.204-.868H55.1a5.74 5.74 0 00.087-.878zm-3.985-.279c.144-.575.539-.922 1.135-.922.64 0 1.07.337 1.136.922h-2.271zm5.626-3.963v1.642h-1.06v1.61h1.06v1.934c0 1.529.832 2.317 2.34 2.317.82 0 1.374-.235 1.732-.517l-.676-1.395a1.32 1.32 0 01-.778.246c-.553 0-.831-.282-.831-.88v-1.71h1.869v-1.609h-1.87v-1.641h-1.786v.003zm-15.498 9.731h-6.686v1.743h2.409v6.132h1.88v-6.132h2.397v-1.743zm2.434 2.014c-1.812 0-3.016 1.273-3.016 2.994 0 1.822 1.338 3.016 3.128 3.016.944 0 1.779-.337 2.376-.923l-1.194-1.059a1.808 1.808 0 01-1.236.463c-.63 0-1.045-.293-1.205-.868h3.884a5.75 5.75 0 00.09-.879c-.003-1.385-.904-2.744-2.827-2.744zm-1.16 2.462c.144-.575.538-.922 1.135-.922.64 0 1.07.337 1.135.922h-2.27zm7.9 1.87c-.741 0-1.215-.528-1.215-1.327 0-.799.484-1.353 1.204-1.353.394 0 .709.17.911.452l1.353-1.092c-.54-.64-1.338-1.012-2.296-1.012-1.733 0-3.005 1.236-3.005 3.005 0 1.768 1.262 3.005 3.005 3.005 1.001 0 1.844-.405 2.375-1.114l-1.363-1.103c-.213.358-.553.539-.97.539zm6.776-4.332c-.687 0-1.273.26-1.667.676v-3.254h-1.79v8.439h1.79v-3.297c0-.597.575-.912 1.114-.912.586 0 .944.337.944.933v3.276h1.79v-3.713c.003-1.316-.933-2.148-2.18-2.148zm6.773 0c-.73 0-1.363.293-1.758.799l-.068-.655h-1.631v5.717h1.79v-3.297c0-.597.575-.912 1.124-.912.565 0 .933.362.933.933v3.276h1.79v-3.713c.004-1.327-.94-2.148-2.18-2.148zm5.268.144h-1.779v5.717h1.78v-5.717zm-.889-2.701c-.586 0-1.06.474-1.06 1.045a1.059 1.059 0 102.12 0c0-.571-.485-1.045-1.06-1.045zm8.048 2.792h-2.183l-1.823 2.072v-4.885h-1.79v8.439h1.79v-1.348l.662-.709 1.385 2.057h2.05l-2.354-3.218 2.264-2.408zm3.277-.235c-1.092 0-1.982.347-2.59.799l.64 1.247a2.638 2.638 0 011.556-.495c.799 0 1.146.315 1.146 1.045v.058a5.314 5.314 0 00-1.396-.192c-1.113 0-2.307.507-2.307 1.779 0 1.161.959 1.769 1.971 1.769.665 0 1.396-.272 1.812-.832l.068.687h1.631v-3.341c0-1.714-.832-2.524-2.531-2.524zm-.441 4.657c-.427 0-.72-.202-.72-.539 0-.415.383-.585.879-.585.304 0 .687.043 1.034.144-.01.6-.618.98-1.193.98zM103.477 3.703h7.507v1.774h-2.656V12h-2.195V5.477h-2.656V3.703zm8.89 0h2.719l2.062 5.781 2.079-5.78h2.711V12h-1.868V6.54L118.047 12h-1.875l-1.93-5.46V12h-1.875V3.703z"/></g><defs><clipPath id="clip0"><path fill="#fff" d="M0 0h123v123H0z"/></clipPath></defs></svg>